<svg xmlns="http://www.w3.org/2000/svg" viewBox="0 0 1024 1024">
	<path fill="#F03C2E" d="M758.4,489.2L534.8,265.7c-12.9-12.9-33.8-12.9-46.6,0l0,0l-46.4,46.4l58.9,58.9c14.1-4.8,29.7-1.2,40.3,9.4c10.6,10.6,14.2,26.4,9.3,40.5l56.8,56.7c14.2-4.9,29.9-1.3,40.6,9.3c15.3,15.3,15.3,40.2,0,55.5l0,0c-15.3,15.3-40.2,15.3-55.5,0c-11.2-11.2-14.5-28-8.5-42.7l-52.9-52.9v139.3c19.4,9.6,27.4,33.1,17.8,52.5c-1.9,3.8-4.4,7.3-7.4,10.4c-15.3,15.3-40.2,15.3-55.5,0l0,0c-15.3-15.3-15.3-40.2,0-55.5l0,0c3.7-3.7,8-6.6,12.8-8.6V444.4c-20.1-8.3-29.6-31.2-21.4-51.3c0-0.1,0-0.1,0.1-0.2l-58-58.1L265.6,488.2c-12.9,12.9-12.9,33.8,0,46.6l223.6,223.6c12.9,12.9,33.8,12.9,46.6,0l222.5-222.5C771.2,523,771.2,502.1,758.4,489.2"/>
</svg>
