<svg xmlns="http://www.w3.org/2000/svg" viewBox="0 0 1024 1024">
	<path fill="#24292F" d="M512.2,260.3C370.5,260.3,256,375.6,256,518.4c0,114.1,73.4,210.7,175.2,244.9c12.7,2.6,17.4-5.6,17.4-12.4c0-6-0.4-26.5-0.4-47.9c-71.3,15.4-86.1-30.8-86.1-30.8c-11.5-29.9-28.4-37.6-28.4-37.6c-23.3-15.8,1.7-15.8,1.7-15.8c25.9,1.7,39.5,26.5,39.5,26.5c22.9,39.3,59.8,28.2,74.7,21.4c2.1-16.7,8.9-28.2,16.1-34.6c-56.8-6-116.7-28.2-116.7-127.4c0-28.2,10.2-51.3,26.3-69.2c-2.5-6.4-11.5-32.9,2.5-68.4c0,0,21.6-6.8,70.4,26.5c20.9-5.7,42.4-8.5,64.1-8.5c21.6,0,43.7,3,64.1,8.5c48.8-33.3,70.4-26.5,70.4-26.5c14,35.5,5.1,62,2.5,68.4c16.5,17.9,26.3,41,26.3,69.2c0,99.1-59.8,120.9-117.1,127.4c9.3,8.1,17.4,23.5,17.4,47.9c0,34.6-0.4,62.4-0.4,70.9c0,6.8,4.7,15,17.4,12.4C694.6,729.1,768,632.5,768,518.4C768.4,375.6,653.5,260.3,512.2,260.3z"/>
</svg>
