<svg xmlns="http://www.w3.org/2000/svg" viewBox="0 0 1024 1024">
	<path d="M596.4,460.4h89.2v16.5h-35.4v86.6h-17.7v-86.6h-36.1V460.4z"/>
	<path d="M449.7,460.4v16.5h-71.5v26.5h57.5v16.5h-57.5V547h71.5v16.5h-89.2v-86.6h0v-16.5H449.7z"/>
	<path d="M494.2,460.5h-23.1L554,563.5h23.2L535.7,512l41.4-51.5l-23.2,0l-29.8,37.1L494.2,460.5z"/>
	<path d="M518,534.1l-11.6-14.4L471,563.6h23.2L518,534.1z"/>
	<path d="M361.1,563.5l-83-103.1H256v103.1h17.7v-81l65.2,81.1H361.1z"/>
	<path d="M689.5,562.9c-1.3,0-2.4-0.4-3.3-1.3c-0.9-0.9-1.4-2-1.4-3.3c0-1.3,0.4-2.3,1.4-3.2c0.9-0.9,2-1.3,3.3-1.3c1.2,0,2.3,0.4,3.3,1.3c0.9,0.9,1.4,2,1.4,3.2c0,0.9-0.2,1.6-0.7,2.3c-0.4,0.7-1,1.3-1.7,1.7C691.1,562.6,690.4,562.9,689.5,562.9z"/>
	<path d="M719.7,519.4h7.8v30.2c0,2.8-0.6,5.1-1.8,7.1c-1.2,2-2.8,3.5-4.9,4.6c-2.1,1.1-4.6,1.6-7.3,1.6c-2.6,0-4.8-0.5-6.9-1.4c-2-0.9-3.7-2.2-4.8-4c-1.2-1.8-1.8-4-1.8-6.6h7.9c0,1.2,0.3,2.2,0.8,3c0.5,0.8,1.2,1.5,2.1,1.9c0.9,0.4,1.9,0.7,3.1,0.7c1.3,0,2.3-0.3,3.2-0.8c0.9-0.5,1.5-1.3,2-2.3c0.5-1,0.7-2.3,0.7-3.8V519.4z"/>
	<path d="M759.8,531.3c-0.2-1.8-1-3.3-2.5-4.3c-1.5-1-3.4-1.5-5.7-1.5c-1.6,0-3.1,0.2-4.2,0.7c-1.2,0.5-2.1,1.2-2.7,2c-0.6,0.8-0.9,1.8-1,2.9c0,0.9,0.2,1.7,0.6,2.3c0.4,0.7,1,1.2,1.7,1.7c0.7,0.5,1.5,0.8,2.4,1.1c0.9,0.3,1.8,0.6,2.7,0.8l4.1,1c1.6,0.4,3.2,0.9,4.8,1.5c1.5,0.6,2.9,1.5,4.1,2.4c1.2,1,2.2,2.2,2.9,3.5c0.7,1.4,1.1,3,1.1,4.9c0,2.5-0.6,4.7-2,6.6c-1.3,1.9-3.2,3.4-5.7,4.5c-2.5,1.1-5.4,1.6-8.9,1.6c-3.4,0-6.3-0.5-8.8-1.6c-2.5-1-4.4-2.5-5.8-4.5c-1.4-2-2.2-4.4-2.3-7.3h7.8c0.1,1.5,0.6,2.7,1.4,3.7c0.8,1,1.9,1.7,3.2,2.2c1.3,0.5,2.8,0.7,4.5,0.7c1.7,0,3.2-0.3,4.5-0.8c1.3-0.5,2.3-1.2,3-2.1c0.7-0.9,1.1-2,1.1-3.2c0-1.1-0.3-2.1-1-2.8c-0.7-0.7-1.6-1.3-2.7-1.8c-1.2-0.5-2.5-0.9-4.1-1.3l-5-1.3c-3.6-0.9-6.4-2.3-8.5-4.1c-2.1-1.9-3.1-4.3-3.1-7.4c0-2.5,0.7-4.7,2.1-6.6c1.4-1.9,3.3-3.4,5.7-4.4c2.4-1.1,5.2-1.6,8.2-1.6c3.1,0,5.8,0.5,8.1,1.6c2.3,1.1,4.2,2.5,5.5,4.4c1.3,1.9,2,4,2.1,6.4H759.8z"/>
</svg>
