<svg xmlns="http://www.w3.org/2000/svg" viewBox="0 0 1024 1024">
	<path fill="black" d="M296.5,437.5h75.9c22.3,0.2,38.4,6.6,48.4,19.3c10,12.7,13.3,29.9,9.9,51.8c-1.3,10-4.2,19.8-8.8,29.5c-4.3,9.6-10.4,18.3-18.1,26.1c-9.4,9.8-19.5,16.1-30.3,18.7c-10.8,2.6-21.9,4-33.4,4h-34l-10.8,53.8H256L296.5,437.5L296.5,437.5M329.7,469.8l-17,85c1.1,0.2,2.3,0.3,3.4,0.3c1.3,0,2.6,0,4,0c18.1,0.2,33.2-1.6,45.3-5.4c12.1-4,20.2-17.8,24.4-41.4c3.4-19.8,0-31.3-10.2-34.3c-10-3-22.6-4.4-37.7-4.2c-2.3,0.2-4.4,0.3-6.5,0.3c-1.9,0-3.9,0-5.9,0L329.7,469.8"/>
	<path fill="black" d="M475.7,383.4h39.1l-11,54.1h35.1c19.3,0.4,33.6,4.3,43.1,11.9c9.6,7.6,12.5,21.9,8.5,43.1l-19,94.3h-39.7l18.1-90.1c1.9-9.4,1.3-16.1-1.7-20.1c-3-4-9.5-5.9-19.5-5.9l-31.4-0.3L474,586.8h-39.1L475.7,383.4L475.7,383.4"/>
	<path fill="black" d="M632.4,437.5h75.9c22.3,0.2,38.4,6.6,48.4,19.3s13.3,29.9,9.9,51.8c-1.3,10-4.2,19.8-8.8,29.5c-4.3,9.6-10.4,18.3-18.1,26.1c-9.4,9.8-19.5,16.1-30.3,18.7c-10.8,2.6-21.9,4-33.4,4h-34l-10.8,53.8h-39.4L632.4,437.5L632.4,437.5 M665.6,469.8l-17,85c1.1,0.2,2.3,0.3,3.4,0.3c1.3,0,2.6,0,4,0c18.1,0.2,33.2-1.6,45.3-5.4c12.1-4,20.2-17.8,24.4-41.4c3.4-19.8,0-31.3-10.2-34.3c-10-3-22.6-4.4-37.7-4.2c-2.3,0.2-4.4,0.3-6.5,0.3c-1.9,0-3.9,0-5.9,0L665.6,469.8"/>
</svg>
