<?xml version="1.0" encoding="utf-8"?>
<!-- Generator: Adobe Illustrator 24.3.0, SVG Export Plug-In . SVG Version: 6.00 Build 0)  -->
<svg version="1.1" id="Layer_1" xmlns="http://www.w3.org/2000/svg" xmlns:xlink="http://www.w3.org/1999/xlink" x="0px" y="0px"
	 viewBox="0 0 1024 1024" style="enable-background:new 0 0 1024 1024;" xml:space="preserve">
<style type="text/css">
	.st0{fill:#010101;}
</style>
<g>
	<path class="st0" d="M525.22,669.25c-7.55-5.55-8.35-13.88-8.35-13.88l-2.83-18.08h-90.19l-2.84,18.08c0,0-0.79,8.34-8.33,13.88
		c-7.54,5.55-13.49,10.31-7.54,11.12c5.73,0.77,59.82,0.07,63.81,0c4,0.07,58.07,0.77,63.81,0
		C538.71,679.57,532.75,674.82,525.22,669.25z"/>
	<path class="st0" d="M315.43,517.46c0-8.37-6.79-15.15-15.15-15.15h-71.96c-8.37,0-15.16,6.79-15.16,15.15v159.08
		c0,8.38,6.79,15.16,15.16,15.16h71.97c8.36,0,15.15-6.78,15.15-15.16L315.43,517.46L315.43,517.46z M256.78,519.36h15.15
		c1.05,0,1.89,0.85,1.89,1.88c0,1.05-0.85,1.9-1.89,1.9h-15.15c-1.05,0-1.9-0.86-1.9-1.9C254.88,520.19,255.73,519.36,256.78,519.36
		z M263.72,682.74c-4.19,0-7.58-3.39-7.58-7.58c0-4.18,3.4-7.58,7.58-7.58c4.18,0,7.58,3.38,7.58,7.58
		C271.3,679.35,267.91,682.74,263.72,682.74z M305.97,661.4h-83.34V534.5h83.34L305.97,661.4L305.97,661.4z"/>
	<path class="st0" d="M789.27,415.16H633.41c-11.74,0-21.25,9.51-21.25,21.25v223.08c0,11.74,9.52,21.26,21.25,21.26h155.86
		c11.74,0,21.25-9.52,21.25-21.26V436.4C810.52,424.66,801.01,415.16,789.27,415.16z M680.83,668.92c-5.87,0-10.63-4.75-10.63-10.61
		c0-5.87,4.77-10.63,10.63-10.63c5.86,0,10.61,4.76,10.61,10.63C691.44,664.17,686.69,668.92,680.83,668.92z M711.34,668.92
		c-5.86,0-10.62-4.75-10.62-10.61c0-5.87,4.76-10.63,10.62-10.63c5.88,0,10.62,4.76,10.62,10.63
		C721.96,664.17,717.22,668.92,711.34,668.92z M741.88,668.92c-5.88,0-10.62-4.75-10.62-10.61c0-5.87,4.75-10.63,10.62-10.63
		c5.86,0,10.62,4.76,10.62,10.63C752.49,664.17,747.74,668.92,741.88,668.92z M797.24,638.23h-171.8V433.74h171.8V638.23
		L797.24,638.23z"/>
	<path class="st0" d="M660.53,397.24h26.12v-47.31c0-9.63-7.8-17.42-17.42-17.42H268.67c-9.62,0-17.42,7.79-17.42,17.42v134.46
		h26.13V358.63h383.15V397.24L660.53,397.24z"/>
	<path class="st0" d="M333.36,567.62v52.25h260.89v-52.25H333.36z M468.95,605.69c-6.59,0-11.95-5.35-11.95-11.95
		c0-6.59,5.35-11.95,11.95-11.95c6.6,0,11.95,5.35,11.95,11.95S475.54,605.69,468.95,605.69z"/>
</g>
</svg>
