<svg xmlns="http://www.w3.org/2000/svg" viewBox="0 0 1024 1024">
	<path fill="#010101" d="M311.18,507.16l55.18-30.72l-55.18-30.72c-2.84-1.71-4.55-2.84-5.69-3.98c-1.14-1.14-1.14-2.84-1.14-4.55c0-2.28,1.14-4.55,2.84-6.26c1.71-1.71,3.98-2.84,6.26-2.84c1.71,0,3.41,0.57,6.83,2.28l81.92,45.51l-81.92,45.51c-2.84,1.71-5.12,2.28-6.83,2.28c-2.28,0-4.55-1.14-6.26-2.84s-2.84-3.98-2.84-6.26c0-1.71,0.57-3.41,1.14-4.55C306.63,510.01,308.34,508.87,311.18,507.16z M392.53,567.47c0,2.28,1.14,4.55,2.84,6.26s4.55,2.28,8.53,2.28h93.3c3.98,0,6.83-0.57,8.53-2.28c1.71-1.71,2.84-3.41,2.84-6.26c0-2.28-1.14-4.55-2.84-6.26c-1.71-1.71-4.55-2.28-8.53-2.28h-93.3c-3.98,0-6.83,0.57-8.53,2.28C393.67,562.92,392.53,565.19,392.53,567.47z M768,359.82v305.49c0,17.64-14.22,31.29-31.29,31.29H287.29c-17.64,0-31.29-14.22-31.29-31.29V359.82c0-2.28,0-3.98,0.57-5.69V327.4h510.86v26.74C768,355.84,768,358.12,768,359.82zM365.8,372.34c3.98,3.41,10.24,2.84,14.22-1.14c3.41-3.98,2.84-10.24-1.14-14.22c-3.98-3.41-10.24-2.84-14.22,1.14C360.68,362.1,361.24,368.36,365.8,372.34z M327.11,372.34c3.98,3.41,10.24,2.84,14.22-1.14c3.41-3.98,2.84-10.24-1.14-14.22c-3.98-3.41-10.24-2.84-14.22,1.14C321.99,362.1,322.56,368.36,327.11,372.34z M290.13,372.34c3.98,3.41,10.24,2.84,14.22-1.14c3.41-4.55,2.84-10.81-1.71-14.22c-3.98-3.98-10.24-3.41-13.65,1.14C285.01,362.1,285.58,368.36,290.13,372.34z M750.36,400.78H273.64v264.53c0,7.4,6.26,13.65,13.65,13.65h448.85c7.4,0,13.65-6.26,13.65-13.65V400.78H750.36z"/>
</svg>
