<svg xmlns="http://www.w3.org/2000/svg" viewBox="0 0 1024 1024">
	<path fill="#FFFFFF" d="M275.2,256h473.6c10.6,0,19.2,8.6,19.2,19.2v473.6c0,10.6-8.6,19.2-19.2,19.2H275.2c-10.6,0-19.2-8.6-19.2-19.2V275.2C256,264.6,264.6,256,275.2,256z"/>
	<path fill="#3178C6" d="M275.2,256h473.6c10.6,0,19.2,8.6,19.2,19.2v473.6c0,10.6-8.6,19.2-19.2,19.2H275.2c-10.6,0-19.2-8.6-19.2-19.2V275.2C256,264.6,264.6,256,275.2,256z M540.6,528.4v-42H358.4v42h65.1v187h51.8v-187H540.6z M561.3,710.4c8.4,4.3,18.2,7.5,29.6,9.6c11.4,2.1,23.4,3.2,36.1,3.2c12.3,0,24-1.2,35.1-3.5c11.1-2.3,20.8-6.2,29.2-11.6s15-12.4,19.8-21.1c4.9-8.7,7.3-19.4,7.3-32.2c0-9.3-1.4-17.4-4.2-24.3c-2.8-7-6.8-13.2-12-18.6c-5.2-5.4-11.5-10.3-18.9-14.6c-7.3-4.3-15.6-8.4-24.8-12.2c-6.7-2.8-12.8-5.5-18.1-8.1c-5.4-2.6-9.9-5.3-13.7-8c-3.7-2.7-6.6-5.6-8.7-8.6c-2-3-3.1-6.5-3.1-10.3c0-3.5,0.9-6.7,2.7-9.5c1.8-2.8,4.4-5.2,7.7-7.3c3.3-2,7.4-3.6,12.2-4.7c4.8-1.1,10.2-1.7,16.1-1.7c4.3,0,8.8,0.3,13.6,1c4.8,0.6,9.6,1.6,14.4,3c4.8,1.3,9.5,3,14.1,5c4.6,2,8.8,4.4,12.6,7v-47.7c-7.8-3-16.4-5.2-25.6-6.6c-9.3-1.4-19.9-2.2-31.9-2.2c-12.2,0-23.8,1.3-34.7,3.9c-10.9,2.6-20.5,6.7-28.8,12.2s-14.9,12.6-19.7,21.2c-4.8,8.6-7.2,18.8-7.2,30.7c0,15.2,4.4,28.2,13.3,39c8.8,10.8,22.2,19.9,40.2,27.3c7.1,2.9,13.7,5.7,19.8,8.5c6.1,2.8,11.4,5.6,15.8,8.6c4.4,3,7.9,6.2,10.5,9.7c2.6,3.5,3.9,7.5,3.9,12c0,3.3-0.8,6.4-2.4,9.2c-1.6,2.8-4,5.3-7.3,7.3c-3.3,2.1-7.3,3.7-12.2,4.9c-4.9,1.2-10.6,1.8-17.1,1.8c-11.1,0-22.2-1.9-33.1-5.8c-10.9-3.9-21-9.7-30.4-17.5L561.3,710.4z"/>
</svg>
