<svg xmlns="http://www.w3.org/2000/svg" viewBox="0 0 1024 1024">
	<path fill="#005A9C" d="M270.5,398.3L338.2,627h2.8l42.4-141.8L425.8,627h2.8l50.8-171.4c9.7-32.7,4.9-29.1,33.8-29.1h23.9l-47.2,81.9h18.9c12.2,0,25.1,4.4,31.9,13.3c1,1.2,1.8,2.6,2.6,4c0.2,0.3,0.4,0.7,0.5,1c0.7,1.4,1.4,2.9,2,4.4c2.4,6.2,3.6,13.7,3.6,22.5c0,12.4-2.7,23.1-8.2,31.9c-1.5,2.4-3.1,4.4-4.7,6.2c-1.1,1.1-2.2,2.1-3.3,2.9c-0.1,0.1-0.2,0.1-0.3,0.2c-1.2,0.8-2.3,1.6-3.6,2.1c-1.1,0.5-2.3,0.9-3.5,1.2c-0.3,0.1-0.6,0.1-0.9,0.2c-1.2,0.2-2.5,0.4-3.8,0.4c-0.1,0-0.1,0-0.2,0c-0.1,0-0.1,0-0.2,0h-0.1c-0.1,0-0.1,0-0.2,0c-1.7,0-3.4-0.2-4.9-0.4l0,0c-0.4-0.1-0.8-0.2-1.3-0.3c-0.1,0-0.2,0-0.3-0.1c-0.1,0-0.2-0.1-0.3-0.1c-1.1-0.3-2.2-0.5-3.2-0.9c-1.6-0.6-3.2-1.4-4.7-2.3c-1.5-0.9-2.9-2-4.3-3.2c-2.9-3.2-5.2-6.8-7.5-10.4h-28.8c2,5.8,4.4,11.1,7.2,15.9l-0.1,0.2c0.3,0.5,0.7,1.1,1,1.6c2,3.2,4.1,6.3,6.5,9.1c2.1,2.5,4.4,4.7,6.9,6.8c1.2,1,2.5,2,3.7,2.9l0,0c1.3,0.9,2.6,1.7,3.9,2.5c0.8,0.5,1.7,0.9,2.5,1.3c0.1,0.1,0.2,0.1,0.3,0.2c0.4,0.2,0.8,0.5,1.2,0.7l0,0c1.4,0.6,2.7,1.2,4.2,1.8c0,0,0,0,0.1,0l0,0c1.4,0.5,2.8,1,4.3,1.3h0.1l0,0c1.5,0.4,2.9,0.7,4.4,1h0.1c1.3,0.2,2.7,0.4,4.1,0.5h0.1c0.1,0,0.1,0,0.2,0c0.1,0,0.2,0,0.2,0l0,0h0.1l0,0c0.8,0.1,1.7,0.1,2.5,0.1c0.2,0,0.4,0,0.5,0s0.2,0,0.3,0c0.4,0,0.9,0.1,1.3,0.1c0.1,0,0.1,0,0.2,0c1.3,0,2.5-0.1,3.7-0.2v-0.1c1.3-0.1,2.7-0.1,4-0.3c0.2,0,0.4-0.1,0.5-0.1c2.4-0.3,4.8-0.9,7.1-1.5c10.7-3,19.9-9.3,27.5-19.1c11-14.1,16.5-31.5,16.5-52.2c0-16.8-3.8-31.3-11.3-43.8c-5.7-9.4-13.5-16.6-23.3-21.6c-0.3-0.2-0.6-0.3-0.9-0.4c-1.3-0.6-2.6-1.2-3.9-1.8c-1.7-0.7-3.4-1.3-5.1-1.9c16.5-28.6,33.4-57.1,49.6-85.9h-89.2c-25.8,0-31,4.4-39.9,34.8l-30.7,104.4l-41-139.2h-29.6L362,421c5.6,18.9,5.1,28.2-0.2,46.2L341,537.5l-40.9-139.2H270.5z"/>
	<path fill="#005A9C" d="M731.9,398.3c-5.8,0-11.1,2.1-15,6.1c-4.2,4.3-6.5,9.8-6.5,15.5s2.2,11,6.3,15.1c4.1,4.2,9.5,6.5,15.3,6.5c5.6,0,11.1-2.3,15.4-6.4c4.1-4,6.3-9.3,6.3-15.2c0-5.8-2.3-11.2-6.2-15.2C743.2,400.5,737.8,398.3,731.9,398.3z M750.7,420.1c0,5-1.9,9.6-5.5,13c-3.7,3.6-8.3,5.5-13.4,5.5c-4.8,0-9.5-2-13.1-5.6c-3.5-3.6-5.5-8.2-5.5-13.1s2-9.7,5.7-13.4c3.4-3.5,8-5.3,13.1-5.3c5.2,0,9.8,1.9,13.4,5.6C748.8,410.2,750.7,414.8,750.7,420.1z M732.5,407.2h-9.2v24.5h4.6v-10.4h4.6l5,10.4h5.2l-5.5-11.2c3.5-0.7,5.6-3.1,5.6-6.6C742.7,409.5,739.3,407.2,732.5,407.2z M731.6,410.2c4.3,0,6.3,1.2,6.3,4.2c0,2.9-2,3.9-6.2,3.9h-3.9v-8.1H731.6z"/>
	<path fill="#005A9C" d="M695.5,397l2.4,14.6c2.2,13.6,0,19.3-6.1,30.9l-8.5,16.3c0,0-6.5-13.8-17.4-21.4c-9.1-6.4-15.1-7.8-24.4-5.9c-12,2.5-25.5,16.8-31.4,34.4c-7.1,21.1-7.1,31.3-7.4,40.7c-0.4,15,2,23.9,2,23.9s-10.3-19.1-10.2-47.1c0.1-20,3.2-38.1,12.4-55.9c8.1-15.7,20.2-25.1,30.9-26.2c11.1-1.1,19.8,4.2,26.6,10c7.1,6.1,14.3,19.3,14.3,19.3L695.5,397z"/>
	<path fill="#005A9C" d="M697.6,562.2c0,0-7.5,13.4-12.2,18.6c-4.7,5.2-13.1,14.3-23.4,18.9c-10.4,4.6-15.8,5.4-26,4.4s-19.7-6.9-23-9.4s-11.8-9.7-16.6-16.5s-12.3-20.3-12.3-20.3s4.2,13.6,6.8,19.3c1.5,3.3,6.1,13.5,12.7,22.3c6.1,8.2,18.1,22.4,36.2,25.6c18.1,3.2,30.6-4.9,33.6-6.9c3.1-2,10.2-6.6,14.3-11c4.3-4.6,6.6-7.9,9.4-13.7c2.1-4.2,3.9-14.1,2.7-20.1L697.6,562.2z"/>
</svg>
