<svg xmlns="http://www.w3.org/2000/svg" viewBox="0 0 1024 1024">
	<path fill="#464342" d="M292.4,512c0,86.9,50.5,162,123.8,197.6l-104.8-287C299.2,449.9,292.4,480.2,292.4,512z"/>
	<path fill="#464342" d="M660.2,500.9c0-27.1-9.7-45.9-18.1-60.6c-11.1-18.1-21.6-33.4-21.6-51.5c0-20.2,15.3-39,36.9-39c1,0,1.9,0.1,2.8,0.2c-39.1-35.8-91.1-57.7-148.3-57.7c-76.7,0-144.2,39.4-183.5,99c5.2,0.2,10,0.3,14.1,0.3c23,0,58.5-2.8,58.5-2.8c11.8-0.7,13.2,16.7,1.4,18.1c0,0-11.9,1.4-25.1,2.1l80,237.9l48.1-144.1L471.3,409c-11.8-0.7-23-2.1-23-2.1c-11.8-0.7-10.4-18.8,1.4-18.1c0,0,36.3,2.8,57.8,2.8c23,0,58.5-2.8,58.5-2.8c11.8-0.7,13.2,16.7,1.4,18.1c0,0-11.9,1.4-25.1,2.1l79.4,236.1l21.9-73.2C653,541.5,660.2,519.7,660.2,500.9z"/>
	<path fill="#464342" d="M515.8,531.2L450,722.7c19.7,5.8,40.5,8.9,62,8.9c25.6,0,50.1-4.4,72.9-12.4c-0.6-0.9-1.1-1.9-1.6-3L515.8,531.2z"/>
	<path fill="#464342" d="M704.7,406.6c0.9,7,1.5,14.5,1.5,22.6c0,22.3-4.2,47.3-16.7,78.7l-67.1,194C687.7,663.8,731.6,593,731.6,512C731.6,473.8,721.8,437.9,704.7,406.6z"/>
	<path fill="#464342" d="M512,256c-141.2,0-256,114.8-256,256c0,141.2,114.8,256,256,256c141.2,0,256-114.8,256-256C768,370.8,653.1,256,512,256z M512,756.3c-134.7,0-244.3-109.6-244.3-244.3c0-134.7,109.6-244.3,244.3-244.3c134.7,0,244.3,109.6,244.3,244.3C756.2,646.7,646.7,756.3,512,756.3z"/>
</svg>
